#!OML:ASF F:\VICON\USERDATA\INSTALL\rory3\rory3.ASF
:FULLY-SPECIFIED
:DEGREES
211
root 1.00375 15.0407 -17.2905 8.1033 0.622574 -2.24835
lowerback 20.3993 -0.147001 0.0151592
upperback 3.25474 0.0765494 2.99975
thorax -7.87902 0.0754725 3.22944
lowerneck -23.9553 -4.46788 -7.93516
upperneck 2.89414 -4.50973 8.90973
head 5.0211 -1.67595 3.63324
rclavicle -1.19271e-014 -3.97569e-016
rhumerus -30.9259 0.972246 -84.7012
rradius 73.8233
rwrist -8.01926
rhand -21.0779 24.0889
rfingers 7.12502
rthumb 5.29917 -5.82489
lclavicle -1.19271e-014 -3.97569e-016
lhumerus -25.5559 -0.0362055 88.3439
lradius 66.3532
lwrist 9.46059
lhand -24.8184 21.0062
lfingers 7.12502
lthumb 1.68691 50.9793
rfemur -45.6169 -1.38012 24.9152
rtibia 78.9183
rfoot -27.1243 -12.1509
rtoes -6.84959
lfemur -47.4462 1.57371 -16.3422
ltibia 79.8826
lfoot -29.1275 0.216988
ltoes -18.782
212
root 1.00238 15.2064 -17.2483 7.89133 0.477705 -2.29518
lowerback 20.0041 -0.0994879 -0.0110663
upperback 3.18693 0.128436 3.00868
thorax -7.7437 0.100318 3.23475
lowerneck -23.7886 -4.49612 -7.87908
upperneck 3.00135 -4.57848 8.87717
head 5.03455 -1.71419 3.60607
rclavicle 6.16232e-015 -1.55052e-014
rhumerus -31.0149 1.00015 -84.7311
rradius 73.3663
rwrist -7.78183
rhand -21.4556 23.9963
rfingers 7.12502
rthumb 4.93441 -5.92624
lclavicle 6.16232e-015 -1.55052e-014
lhumerus -25.8449 -0.290044 88.3989
lradius 65.9515
lwrist 9.50085
lhand -24.8328 20.2269
lfingers 7.12502
lthumb 1.67303 50.2001
rfemur -44.0217 -1.02276 24.8574
rtibia 76.6635
rfoot -26.2782 -12.1302
rtoes -7.75742
lfemur -45.6102 1.51462 -16.3547
ltibia 77.4196
lfoot -28.711 0.715219
ltoes -19.8648
213
root 1.00489 15.3921 -17.1988 7.52168 0.445749 -2.23475
lowerback 19.7718 -0.130944 -0.0669995
upperback 3.09685 0.0743198 3.01373
thorax -7.71388 0.0763435 3.28401
lowerneck -23.3489 -4.4841 -8.09882
upperneck 3.07525 -4.55641 9.07366
head 5.00419 -1.70246 3.70956
rclavicle -3.97569e-016 3.97569e-016
rhumerus -31.3982 1.19319 -84.7653
rradius 73.1046
rwrist -7.57737
rhand -21.7281 23.7441
rfingers 7.12502
rthumb 4.67135 -6.1844
lclavicle -3.97569e-016 3.97569e-016
lhumerus -26.3318 -0.386467 88.4822
lradius 65.4905
lwrist 9.62449
lhand -24.8876 19.8257
lfingers 7.12502
lthumb 1.62015 49.7993
rfemur -42.1099 -0.959253 24.6629
rtibia 74.193
rfoot -25.3596 -11.7995
rtoes -8.02351
lfemur -43.4893 1.30365 -16.5168
ltibia 74.75
lfoot -28.1325 1.18574
ltoes -19.8085
214
root 1.01031 15.597 -17.1456 6.99457 0.461268 -2.30232
lowerback 19.639 -0.171022 0.0446072
upperback 3.0694 0.0482431 3.0678
thorax -7.67076 0.0613065 3.28375
lowerneck -22.8522 -4.41686 -8.50458
upperneck 3.0031 -4.42588 9.46702
head 4.92009 -1.62926 3.91981
rclavicle 5.56597e-015 7.55382e-015
rhumerus -31.8239 1.32129 -84.7443
rradius 72.8417
rwrist -7.36214
rhand -21.7787 23.6758
rfingers 7.12502
rthumb 4.62249 -6.25377
lclavicle 5.56597e-015 7.55382e-015
lhumerus -26.7572 -0.525121 88.6568
lradius 64.9745
lwrist 9.62981
lhand -24.8018 20.0697
lfingers 7.12502
lthumb 1.70303 50.0427
rfemur -39.947 -1.03258 24.6216
rtibia 71.5331
rfoot -24.2631 -11.4262
rtoes -8.60883
lfemur -41.1378 1.10944 -16.5453
ltibia 71.9416
lfoot -27.1669 1.82096
ltoes -19.0442
215
root 1.01588 15.8049 -17.0887 6.46967 0.348542 -2.36282
lowerback 19.4184 -0.170445 0.139707
upperback 3.01632 0.0660751 3.07156
thorax -7.61057 0.0671259 3.22568
lowerneck -22.7164 -4.36593 -8.62416
upperneck 3.43033 -4.37081 9.55903
head 5.036 -1.59794 3.97634
rclavicle 5.56597e-015 -1.66979e-014
rhumerus -32.1014 1.31235 -84.8034
rradius 72.1822
rwrist -6.99275
rhand -21.7819 23.5967
rfingers 7.12502
rthumb 4.61935 -6.33293
lclavicle 5.56597e-015 -1.66979e-014
lhumerus -27.154 -0.819129 88.7677
lradius 64.4526
lwrist 9.83975
lhand -24.8275 20.7454
lfingers 7.12502
lthumb 1.67817 50.7186
rfemur -37.7215 -1.09189 24.5568
rtibia 68.7707
rfoot -23.0699 -10.7787
rtoes -8.97626
lfemur -38.6709 1.095 -16.5783
ltibia 69.0209
lfoot -25.6858 2.61369
ltoes -17.7919
216
root 1.02149 16.019 -17.0289 6.08554 0.214673 -2.33908
lowerback 18.9548 -0.171132 0.163209
upperback 2.88534 0.0602959 3.02343
thorax -7.50184 0.0630035 3.15545
lowerneck -22.6384 -4.31219 -8.42434
upperneck 4.18082 -4.37549 9.2684
head 5.24845 -1.61471 3.85007
rclavicle 8.94531e-015 -7.95139e-015
rhumerus -32.4089 1.35235 -84.9239
rradius 71.3845
rwrist -6.51189
rhand -21.7883 23.2742
rfingers 7.12502
rthumb 4.61322 -6.65555
lclavicle 8.94531e-015 -7.95139e-015
lhumerus -27.4723 -1.17159 88.813
lradius 63.6658
lwrist 10.2106
lhand -24.793 21.197
lfingers 7.12502
lthumb 1.71153 51.1699
rfemur -35.5448 -1.25976 24.394
rtibia 65.9226
rfoot -21.8331 -9.81151
rtoes -8.962
lfemur -36.271 1.13993 -16.6934
ltibia 65.9387
lfoot -24.2853 2.85634
ltoes -18.644
217
root 1.02749 16.2506 -16.9659 5.70939 0.120552 -2.46287
lowerback 18.3853 -0.161826 0.35086
upperback 2.74433 0.103483 3.04144
thorax -7.34806 0.0787532 3.04966
lowerneck -22.0691 -4.23581 -8.35955
upperneck 4.59301 -4.33699 9.06598
head 5.28245 -1.62091 3.78061
rclavicle 9.74045e-015 -3.29983e-014
rhumerus -32.7056 1.37907 -84.9779
rradius 70.472
rwrist -5.95492
rhand -21.7491 22.8903
rfingers 7.12502
rthumb 4.65103 -7.03862
lclavicle 9.74045e-015 -3.29983e-014
lhumerus -27.9178 -1.47409 88.9222
lradius 62.6253
lwrist 10.4119
lhand -24.235 19.6635
lfingers 7.12502
lthumb 2.25042 49.6314
rfemur -33.3301 -1.47182 24.3783
rtibia 62.9511
rfoot -20.4157 -8.56454
rtoes -8.63113
lfemur -33.9005 1.10711 -16.6003
ltibia 62.7255
lfoot -23.2655 2.00683
ltoes -20.5131
218
root 1.03621 16.5094 -16.8981 5.33401 -0.0544549 -2.38127
lowerback 17.7811 -0.109323 0.350596
upperback 2.63353 0.161785 3.03429
thorax -7.14218 0.105992 3.02035
lowerneck -21.6462 -4.1707 -8.48633
upperneck 5.10004 -4.26563 8.96355
head 5.37214 -1.60382 3.7785
rclavicle -9.74045e-015 7.95139e-015
rhumerus -32.8695 1.42018 -84.9549
rradius 69.3899
rwrist -5.50416
rhand -21.6498 22.6167
rfingers 7.12502
rthumb 4.74688 -7.31012
lclavicle -9.74045e-015 7.95139e-015
lhumerus -28.3824 -1.80179 89.1045
lradius 61.6856
lwrist 10.6479
lhand -24.168 19.8967
lfingers 7.12502
lthumb 2.31513 49.8639
rfemur -31.1471 -1.6633 24.1044
rtibia 59.8863
rfoot -18.4267 -7.44579
rtoes -9.3464
lfemur -31.4664 1.03791 -16.7443
ltibia 59.3568
lfoot -21.8503 0.871211
ltoes -20.4373
219
root 1.04902 16.7783 -16.826 4.9522 -0.259414 -2.22892
lowerback 17.2374 -0.0898996 0.287005
upperback 2.49501 0.165806 3.01018
thorax -6.99525 0.109064 3.02379
lowerneck -21.5642 -4.1278 -8.51489
upperneck 6.01785 -4.22641 8.69133
head 5.63974 -1.60397 3.70156
rclavicle -1.98785e-015 8.74653e-015
rhumerus -33.1775 1.59567 -84.9661
rradius 68.412
rwrist -5.06945
rhand -21.5207 23.004
rfingers 7.12502
rthumb 4.87158 -6.91995
lclavicle -1.98785e-015 8.74653e-015
lhumerus -28.7674 -1.9946 89.2447
lradius 60.5655
lwrist 10.6059
lhand -24.4034 20.6504
lfingers 7.12502
lthumb 2.08774 50.6199
rfemur -28.9441 -1.83481 23.7285
rtibia 56.7616
rfoot -16.2551 -6.30747
rtoes -11.3003
lfemur -29.043 0.904373 -16.9693
ltibia 55.9017
lfoot -19.7492 0.00249923
ltoes -19.5224
220
root 1.05862 17.0371 -16.7595 4.59645 -0.386786 -2.21431
lowerback 16.747 -0.089258 0.345239
upperback 2.30945 0.173864 3.03207
thorax -6.92709 0.112497 3.008
lowerneck -21.4548 -4.13028 -8.31145
upperneck 6.943 -4.2703 8.11214
head 5.90017 -1.66482 3.47701
rclavicle 2.5842e-015 -7.95139e-015
rhumerus -33.5841 1.61293 -84.9383
rradius 67.453
rwrist -4.34747
rhand -21.3853 23.4307
rfingers 7.12502
rthumb 5.00236 -6.49021
lclavicle 2.5842e-015 -7.95139e-015
lhumerus -29.134 -2.1403 89.3837
lradius 59.1853
lwrist 10.2559
lhand -24.7381 20.7432
lfingers 7.12502
lthumb 1.7645 50.7157
rfemur -26.7864 -1.95982 23.5416
rtibia 53.6121
rfoot -13.829 -5.18434
rtoes -12.7344
lfemur -26.7186 0.733692 -16.9675
ltibia 52.4246
lfoot -17.2089 -0.885492
ltoes -19.8507
221
root 1.06584 17.306 -16.7014 4.38273 -0.557658 -2.22494
lowerback 16.1038 -0.0354291 0.433178
upperback 2.17519 0.253567 3.07932
thorax -6.7223 0.14901 2.98422
lowerneck -21.4739 -4.16917 -8.37151
upperneck 7.76042 -4.30606 7.81727
head 6.1609 -1.70588 3.38798
rclavicle -4.17448e-015 0
rhumerus -33.5807 1.36336 -84.7864
rradius 66.1879
rwrist -3.32274
rhand -21.3336 23.3485
rfingers 7.12502
rthumb 5.05221 -6.5713
lclavicle -4.17448e-015 0
lhumerus -29.2253 -2.27404 89.5614
lradius 57.6484
lwrist 9.90338
lhand -24.7057 20.4962
lfingers 7.12502
lthumb 1.79584 50.4684
rfemur -24.8388 -1.91038 23.3904
rtibia 50.3867
rfoot -10.4235 -4.22304
rtoes -12.5171
lfemur -24.504 0.539901 -16.8982
ltibia 48.8962
lfoot -14.1824 -1.78776
ltoes -20.2296
222
root 1.07684 17.6006 -16.6393 4.26148 -0.815828 -2.15087
lowerback 15.4884 -0.0147643 0.419677
upperback 1.8609 0.277323 3.12588
thorax -6.72175 0.163572 3.03345
lowerneck -21.3118 -4.05696 -8.61278
upperneck 8.76639 -4.12888 7.66658
head 6.44603 -1.64391 3.40358
rclavicle 3.97569e-015 -7.15625e-015
rhumerus -33.9352 1.41216 -84.673
rradius 65.0171
rwrist -2.50197
rhand -21.2397 23.3157
rfingers 7.12502
rthumb 5.14286 -6.60193
lclavicle 3.97569e-015 -7.15625e-015
lhumerus -29.7298 -2.10302 89.6831
lradius 56.224
lwrist 9.4472
lhand -24.6673 20.4231
lfingers 7.12502
lthumb 1.83287 50.3949
rfemur -23.0245 -1.65394 23.0666
rtibia 47.0365
rfoot -6.56221 -3.12145
rtoes -11.9177
lfemur -22.3394 0.213733 -16.948
ltibia 45.283
lfoot -10.573 -2.485
ltoes -20.2451
